<?xml version="1.0" standalone="no"?>
<!DOCTYPE svg PUBLIC "-//W3C//DTD SVG 20010904//EN"
 "http://www.w3.org/TR/2001/REC-SVG-20010904/DTD/svg10.dtd">
<svg version="1.0" xmlns="http://www.w3.org/2000/svg"
 width="720.000000pt" height="720.000000pt" viewBox="0 0 720.000000 720.000000"
 preserveAspectRatio="xMidYMid meet">
<metadata>
Created by potrace 1.11, written by Peter Selinger 2001-2013
</metadata>
<g transform="translate(0.000000,720.000000) scale(0.100000,-0.100000)"
fill="#000000" stroke="none">
<path d="M909 7196 c-2 -2 -22 -7 -44 -10 -237 -37 -474 -177 -637 -376 -89
-110 -157 -246 -201 -405 l-22 -80 0 -2720 0 -2720 23 -89 c64 -254 221 -478
434 -619 106 -71 188 -108 313 -144 l100 -28 1480 0 c1310 0 1603 4 1680 20
11 3 43 7 70 10 28 2 62 7 78 10 15 2 55 10 90 16 203 35 521 132 742 227 522
223 940 534 1350 1003 93 107 272 363 354 509 24 41 47 82 51 90 31 53 129
262 165 350 82 199 164 475 201 675 9 50 17 97 19 105 1 8 6 40 10 70 4 30 9
64 11 75 19 100 26 591 12 750 -20 207 -51 388 -103 595 -82 323 -247 709
-425 990 -79 126 -248 362 -280 390 -3 3 -30 34 -60 70 -58 69 -266 279 -340
344 -426 371 -919 634 -1455 776 -60 16 -121 32 -135 34 -109 23 -176 36 -208
41 -21 3 -47 7 -57 9 -11 2 -54 7 -95 11 -41 4 -84 10 -95 13 -23 7 -3019 15
-3026 8z"/>
</g>
</svg>
